<?xml version="1.0" encoding="utf-8"?>
<!-- Generator: Adobe Illustrator 22.0.1, SVG Export Plug-In . SVG Version: 6.00 Build 0)  -->
<svg version="1.1" id="Layer_1" xmlns="http://www.w3.org/2000/svg" xmlns:xlink="http://www.w3.org/1999/xlink" x="0px"
	y="0px" viewBox="0 0 356 139.3" style="enable-background:new 0 0 356 139.3;" xml:space="preserve">
	<style type="text/css">
		.st0 {
			fill: #4285F4;
		}

		.st1 {
			fill: #4285F4;
		}

		.st2 {
			fill: #4285F4;
		}

		.st3 {
			fill: #4285F4;
		}

		.st4 {
			fill: #4285F4;
		}

		.st5 {
			fill: #4285F4;
		}

		.st6 {
			fill: #4285F4;
		}

		.st7 {
			fill: #4285F4;
		}

		.st8 {
			fill: #4285F4;
		}

		.st9 {
			fill: #4285F4;
		}

		.st10 {
			fill: #4285F4;
		}

		.st11 {
			fill: #4285F4;
		}

		.st12 {
			fill: #4285F4;
		}

		.st13 {
			fill: #4285F4;
		}

		.st14 {
			fill: #4285F4;
		}

		.st15 {
			fill: #4285F4;
		}

		.st16 {
			fill: #4285F4;
		}

		.st17 {
			fill: #4285F4;
		}

		.st18 {
			fill: #4285F4;
		}

		.st19 {
			fill: #4285F4;
		}

		.st20 {
			fill: #4285F4;
		}

		.st21 {
			fill: #4285F4;
		}

		.st22 {
			fill: #4285F4;
		}

		.st23 {
			fill: #4285F4;
		}

		.st24 {
			fill: #4285F4;
		}

		.st25 {
			fill: #4285F4;
		}

		.st26 {
			fill: #4285F4;
		}

		.st27 {
			fill: #4285F4;
		}

		.st28 {
			fill: #4285F4;
		}

		.st29 {
			fill: #4285F4;
		}

		.st30 {
			fill: #4285F4;
		}

		.st31 {
			fill: #4285F4;
		}

		.st32 {
			fill: #4285F4;
		}

		.st33 {
			fill: #4285F4;
		}

		.st34 {
			fill: #4285F4;
		}

		.st35 {
			fill: #4285F4;
		}

		.st36 {
			fill: #4285F4;
		}

		.st37 {
			fill: #4285F4;
		}

		.st38 {
			fill: #4285F4;
		}

		.st39 {
			fill: #4285F4;
		}

		.st40 {
			fill: #4285F4;
		}

		.st41 {
			fill: #4285F4;
		}

		.st42 {
			fill: #4285F4;
		}

		.st43 {
			fill: #4285F4;
		}

		.st44 {
			fill: #4285F4;
		}

		.st45 {
			fill: #4285F4;
		}

		.st46 {
			fill: #4285F4;
		}

		.st47 {
			fill: #4285F4;
		}

		.st48 {
			fill: #4285F4;
		}

		.st49 {
			fill: #4285F4;
		}

		.st50 {
			fill: #4285F4;
		}

		.st51 {
			fill: #4285F4;
		}

		.st52 {
			fill: #4285F4;
		}

		.st53 {
			fill: #4285F4;
			stroke: #4285F4;
			stroke-width: 4;
			stroke-miterlimit: 10;

		}

		.st54 {
			fill: #111;
		}
	</style>
	<g>
		<path class="st53" d="M52.4,45.1c2.7,1.6,4.7,3.7,6.2,6.2c1.4,2.5,2.1,5.4,2.1,8.7c0,3.1-0.7,5.9-2.2,8.6c-1.5,2.7-3.6,5-6.3,7.1
		c-2.4,1.9-5.2,3.3-8.3,4.3c-3.1,1-6.4,1.5-9.9,1.6c-3.5,0-6.8-0.5-9.9-1.4c-3.1-1-5.9-2.4-8.4-4.3c-3.7-2.8-6.2-6.1-7.5-10
		l13.5-6.3c0,0.6,0.2,1.4,0.7,2.4c0.4,1,1.2,1.9,2.1,2.8c1,0.9,2.2,1.7,3.8,2.3c1.5,0.6,3.4,1,5.7,1c1.8,0,3.4-0.2,4.8-0.7
		c1.4-0.4,2.5-1,3.5-1.7c0.9-0.7,1.6-1.4,2.1-2.3c0.5-0.9,0.7-1.7,0.7-2.6c0-1-0.3-2-1-2.9c-0.7-0.9-1.7-1.6-3.1-2.1
		c-2.6-0.9-5.3-1.7-8.1-2.3c-2.9-0.6-5.6-1.4-8.3-2.3c-2.7-0.9-5.2-2.2-7.5-3.7s-4.1-3.7-5.5-6.4c-1.2-2.4-1.8-5-1.8-7.8
		c0-3.1,0.7-6.1,2.2-8.9c1.4-2.9,3.4-5.3,5.9-7.3c2.4-1.9,5-3.3,8-4.3c2.9-1,6.1-1.5,9.3-1.5c3.3,0,6.4,0.5,9.4,1.4s5.7,2.4,8,4.2
		c2.3,1.7,4.1,3.8,5.5,6.1l-11,7.5c-1.3-1.9-3-3.4-5-4.5c-2-1.1-4.3-1.7-6.8-1.7c-3.5,0-6.1,0.8-8,2.3c-1.9,1.5-2.8,3.6-2.8,6.1
		c0,1.2,0.5,2.2,1.6,3.1c1.1,0.9,2.4,1.7,4.1,2.4c1.7,0.7,3.6,1.3,5.7,1.9c2.1,0.5,4.2,1.1,6.3,1.6c2.1,0.5,4.1,1.1,5.9,1.7
		C49.7,43.7,51.2,44.4,52.4,45.1z" />
		<path class="st53" d="M94.6,31.1c3.1,0,6.1,0.7,8.8,2c2.7,1.3,5.1,3.1,7.1,5.4c2,2.3,3.5,4.9,4.7,8c1.1,3,1.7,6.3,1.7,9.8v23.9h-13
		v-8.8c0-2.4,0-5,0-7.6c0-2.6,0-4.8,0-6.7c0-1.8-0.3-3.6-0.9-5.3c-0.6-1.7-1.4-3.3-2.4-4.6c-1-1.3-2.2-2.4-3.6-3.2
		c-1.4-0.8-2.8-1.2-4.4-1.2c-1.5,0-2.9,0.3-4.3,0.8c-1.4,0.5-2.5,1.3-3.6,2.4c-1,1.1-1.9,2.4-2.5,4c-0.6,1.6-0.9,3.5-0.9,5.7v24.3
		H68.2V10h13.3l0.1,26.2c1.7-1.6,3.6-2.8,5.7-3.7C89.4,31.6,91.9,31.1,94.6,31.1z" />
		<path class="st53" d="M130.6,25.9c-2.1,0-3.8-0.7-5.2-2.1c-1.4-1.4-2.1-3.1-2.1-5.2c0-2.1,0.7-3.8,2.1-5.2c1.4-1.4,3.1-2.2,5.2-2.2
		c2.1,0,3.8,0.7,5.2,2.2c1.4,1.4,2.1,3.2,2.1,5.2c0,2.1-0.7,3.8-2.1,5.2C134.4,25.2,132.6,25.9,130.6,25.9z M137.2,80.2h-13.3V32.5
		h13.3V80.2z" />
		<path class="st53" d="M174.7,31.1c3.4,0,6.5,0.7,9.4,2c2.9,1.3,5.4,3.1,7.5,5.4c2.1,2.3,3.7,4.9,4.9,8c1.2,3,1.8,6.3,1.8,9.8
		c0,3.5-0.6,6.7-1.8,9.8c-1.2,3-2.8,5.7-4.9,8c-2.1,2.3-4.6,4.1-7.5,5.4c-2.9,1.3-6,2-9.4,2c-2.8,0-5.5-0.5-8.1-1.5
		c-2.6-1-4.7-2.3-6.2-3.8v23.2h-13.3V32.5h11.3l1.9,3.3c1.9-1.7,3.9-2.9,6.3-3.6C169.1,31.5,171.7,31.1,174.7,31.1z M173,69.5
		c1.7,0,3.3-0.4,4.9-1.1c1.5-0.7,2.8-1.6,3.9-2.8c1.1-1.2,2-2.6,2.7-4.2c0.7-1.6,1-3.3,1-5.2c0-1.8-0.3-3.5-1-5.1
		c-0.7-1.6-1.6-3-2.7-4.2c-1.1-1.2-2.4-2.1-3.9-2.8c-1.5-0.7-3.1-1.1-4.9-1.1c-1.7,0-3.4,0.2-4.9,0.7c-1.5,0.5-2.8,1.3-3.9,2.3
		c-1.1,1.1-2,2.4-2.6,4.1c-0.6,1.7-1,3.7-1,6.1c0,2.2,0.3,4.2,1,5.8c0.6,1.6,1.5,3,2.6,4.1c1.1,1.1,2.4,2,3.9,2.5
		C169.6,69.2,171.3,69.5,173,69.5z" />
		<path class="st53" d="M234.3,55.2c3.5,2.5,5.3,6.1,5.3,10.7c0,2.1-0.5,4.1-1.5,6c-1,1.9-2.4,3.5-4.1,4.9c-1.7,1.4-3.8,2.5-6.1,3.3
		c-2.3,0.8-4.8,1.2-7.4,1.2c-2,0-3.9-0.3-5.8-0.8c-1.9-0.5-3.6-1.2-5.2-2.1c-1.6-0.9-3-2-4.2-3.2c-1.2-1.3-2.1-2.6-2.6-4.2
		c1.5-0.7,3.1-1.5,4.9-2.4c1.8-0.9,3.4-1.7,4.7-2.4c0.6,1,1.5,1.8,2.7,2.6c1.2,0.8,2.9,1.2,5,1.2c2.2,0,3.8-0.5,4.8-1.5
		c1-1,1.5-2,1.5-2.9c0-0.6-0.4-1.2-1.1-1.8c-0.7-0.5-1.5-1-2.4-1.3c-1.3-0.5-2.3-0.8-3.2-0.8c-0.8,0-1.8-0.2-2.9-0.5
		c-3.5-0.8-6.1-1.9-7.9-3.3c-1.8-1.4-3.2-2.8-4-4.2c-0.8-1.4-1.3-2.8-1.4-4c-0.1-1.3-0.1-2.3-0.1-3.1c0-2.1,0.4-4,1.3-5.9
		c0.9-1.9,2.1-3.5,3.7-4.9c1.6-1.4,3.4-2.5,5.5-3.3c2.1-0.8,4.3-1.3,6.7-1.3c2,0,3.9,0.3,5.7,0.9c1.8,0.6,3.4,1.4,4.9,2.4
		c1.5,1,2.7,2.2,3.8,3.7c1.1,1.4,1.8,3,2.4,4.7L227,46.4c-0.4-1.2-1.2-2.1-2.4-2.8c-1.2-0.7-2.5-1.1-3.8-1.1c-1.3,0-2.4,0.4-3.3,1.3
		c-0.8,0.9-1.3,1.8-1.3,2.7c0,1.1,0.4,1.9,1.2,2.5c0.8,0.6,1.7,1,2.6,1.3c0.7,0.1,1.4,0.2,2.1,0.3c0.7,0.1,1.3,0.2,2,0.3
		c2.2,0.5,4.2,1.1,5.8,1.7C231.6,53.5,233,54.3,234.3,55.2z" />
		<path class="st53" d="M270.1,31.1c3.6,0,6.9,0.7,9.8,2.2s5.5,3.3,7.6,5.7c2.1,2.3,3.8,5,4.9,8.1c1.2,3,1.7,6.2,1.7,9.4
		c0,1.9-0.3,4-0.8,6.2h-34c1.3,2.2,3.1,4,5.5,5.5c2.4,1.5,4.9,2.3,7.7,2.3c2.8,0,5.2-0.2,7.3-0.7c2.1-0.4,4.1-1,5.9-1.7l4.4,8.2
		c-2.4,1.7-5.1,3-8.1,3.8c-3,0.9-6.3,1.3-9.8,1.3c-3.8,0-7.3-0.7-10.6-2c-3.3-1.3-6.1-3.1-8.6-5.3c-2.4-2.2-4.4-4.9-5.8-8
		c-1.4-3.1-2.1-6.3-2.1-9.8c0-3.4,0.6-6.6,1.9-9.7c1.3-3,3.1-5.7,5.3-8c2.3-2.3,4.9-4.1,7.9-5.4C263.4,31.8,266.7,31.1,270.1,31.1z
		 M281,52.3c-0.8-2.8-2.1-5-4.1-6.7c-2-1.7-4.2-2.6-6.7-2.6c-2.6,0-4.9,0.9-7,2.6c-2.1,1.7-3.5,4-4.3,6.7H281z" />
		<path class="st53" d="M328.6,32.5c1.8,0,3.8,0.3,5.9,0.8c2.2,0.5,4.2,1.5,6.1,2.9c1.9,1.4,3.5,3.4,4.8,5.9s2,5.7,2,9.7v28.5h-13.3
		V52.3c0-1.5-0.2-2.7-0.7-3.7c-0.5-1-1.1-1.8-1.9-2.4c-0.8-0.6-1.7-1.1-2.7-1.3c-1-0.3-2.1-0.4-3.1-0.4c-0.8,0-1.7,0.1-2.7,0.4
		c-1,0.3-1.9,0.8-2.8,1.4c-0.9,0.6-1.6,1.5-2.2,2.5s-0.9,2.2-0.9,3.6v27.9h-13.3V32.5h11.3l1.9,3.7c1.5-1.1,3.3-2,5.2-2.6
		C324.3,32.8,326.3,32.5,328.6,32.5z" />
	</g>
	<g>
		<g>
			<path class="st54" d="M21.5,125.4h-3.8l-1.4-11.3l-1.5,11.3h-3.8l-2.6-14.5h3l1.4,11.5l1.4-11.3h4.1l1.4,11.4l1.6-11.6h2.9
			L21.5,125.4z" />
			<path class="st54"
				d="M30.3,121.6l-0.9,3.8h-3l3.9-14.5h3.5l3.9,14.5h-3.1l-0.9-3.8H30.3z M31,118.7h2l-1-4.5L31,118.7z" />
			<path class="st54" d="M51.1,125.4H48c-0.3-1-0.4-1.9-0.5-2.9c-0.1-1.6-0.6-2.5-1.3-2.6c-0.3,0-0.6,0-0.9,0h-0.6v5.5h-2.8v-14.5
			h4.3c0.7,0,1.1,0,1.7,0.1c1.6,0.3,2.9,1.3,2.9,3.8c0,1.8-0.7,3-2.2,3.6c1.1,0.5,1.5,1.7,1.7,3.4C50.4,123.5,50.7,124.5,51.1,125.4
			z M45.7,117.1c0.3,0,0.6,0,0.8,0c0.7-0.1,1.4-0.4,1.4-1.6c0-1.2-0.6-1.6-1.3-1.6c-0.2,0-0.5,0-0.8,0h-1.1v3.3H45.7z" />
			<path class="st54" d="M64.1,125.4h-8.3v-14.5h8.2v2.9h-5.3v2.8h5v2.9h-5v2.9h5.5V125.4z" />
			<path class="st54" d="M79,125.4h-2.8v-5.6h-4.3v5.6h-2.8v-14.5h2.8v5.9h4.3v-5.9H79V125.4z" />
			<path class="st54" d="M94.9,118.1c0,4.6-2.2,7.5-5.6,7.5s-5.6-2.9-5.6-7.5c0-4.7,2.2-7.5,5.6-7.5S94.9,113.5,94.9,118.1z
			 M92,118.1c0-3.1-1-4.8-2.7-4.8s-2.7,1.7-2.7,4.8c0,3.1,1,4.8,2.7,4.8S92,121.2,92,118.1z" />
			<path class="st54" d="M109.2,119c0,0.7,0,1.2,0,2c-0.1,2.4-1.4,4.6-4.8,4.6c-3.4,0-4.6-2.2-4.8-4.6c0-0.9,0-1.3,0-2v-8.1h2.8v8.8
			c0,0.4,0,0.6,0,0.9c0.1,1.5,0.7,2.3,2,2.3c1.2,0,1.9-0.8,2-2.3c0-0.3,0-0.5,0-0.9v-8.8h2.8V119z" />
			<path class="st54" d="M122.3,115.4h-2.8c-0.1-1.2-0.6-2-1.5-2c-0.6,0-1.1,0.4-1.1,1.3c0,0.9,0.5,1.5,2.3,2.1
			c2.4,0.8,3.4,2.4,3.4,4.6c0,2.9-2.1,4.4-4.3,4.4c-2.8,0-4.6-1.5-4.8-4.7h2.8c0.2,1.4,1,2,1.9,2c0.8,0,1.4-0.5,1.4-1.3
			c0-0.8-0.4-1.4-1.7-1.8c-2.5-0.8-3.9-1.8-3.9-4.7c0-2.8,2-4.4,4.1-4.4C120.9,110.6,122.1,112.7,122.3,115.4z" />
			<path class="st54" d="M127.2,125.4v-14.5h2.8v14.5H127.2z" />
			<path class="st54" d="M142,125.4l-4-9.6c0.1,1.5,0.1,2.8,0.1,3.6v6h-2.8v-14.5h3.5l4.1,10c-0.1-1.5-0.1-3-0.1-3.8v-6.2h2.8v14.5
			H142z" />
			<path class="st54" d="M161,117.6v7.7h-2.2l-0.3-2.2l-0.5,1.6c-0.6,0.7-1.4,0.9-2.5,0.9c-2.9,0-4.9-2.6-4.9-7.4
			c0-5,2.6-7.6,5.5-7.6c3.1,0,4.7,2.2,4.9,5.1l0,0.2h-2.8l0-0.2c-0.2-1.6-0.9-2.3-2.1-2.3c-1.4,0-2.5,1.5-2.5,4.6
			c0,3.7,1.2,4.9,2.5,4.9c1.1,0,1.8-0.7,2.2-2.3h-2.1v-2.9H161z" />
			<path class="st54" d="M181.7,119.5h-1.4v5.6c-1.2,0.3-2.6,0.6-4.3,0.6c-2.5,0-4.5-1-4.5-4c0-2.1,1.1-3.3,2.6-3.7
			c-1.2-0.5-2-1.7-2-3.3c0-2.7,1.5-4.1,4.3-4.1c0.6,0,1.1,0.1,1.6,0.2v2.7c-0.6-0.1-1-0.1-1.5-0.1c-0.9,0-1.4,0.5-1.4,1.6
			s0.5,1.6,1.1,1.6c0.3,0,0.6,0,0.9,0h0.3v-1.6h2.8v1.6h1.4V119.5z M176,122.9c0.5,0,0.8,0,1.4-0.1v-3.3h-0.5c-0.3,0-0.5,0-0.8,0
			c-1,0.1-1.6,0.6-1.6,1.7C174.4,122.5,175.1,122.9,176,122.9z" />
			<path class="st54" d="M194.8,116.6h4.9v2.9h-4.9v5.8h-2.8v-14.5h8.2v2.9h-5.3V116.6z" />
			<path class="st54" d="M214.2,119c0,0.7,0,1.2,0,2c-0.1,2.4-1.4,4.6-4.8,4.6c-3.4,0-4.6-2.2-4.8-4.6c0-0.9,0-1.3,0-2v-8.1h2.8v8.8
			c0,0.4,0,0.6,0,0.9c0.1,1.5,0.7,2.3,2,2.3s1.9-0.8,2-2.3c0-0.3,0-0.5,0-0.9v-8.8h2.8V119z" />
			<path class="st54" d="M227.6,125.4h-8.3v-14.5h2.8v11.3h5.5V125.4z" />
			<path class="st54" d="M235.1,116.6h4.9v2.9h-4.9v5.8h-2.8v-14.5h8.2v2.9h-5.3V116.6z" />
			<path class="st54" d="M245.1,125.4v-14.5h2.8v14.5H245.1z" />
			<path class="st54" d="M261.5,125.4h-8.3v-14.5h2.8v11.3h5.5V125.4z" />
			<path class="st54" d="M274.6,125.4h-8.3v-14.5h2.8v11.3h5.5V125.4z" />
			<path class="st54" d="M287.6,125.4h-8.3v-14.5h8.2v2.9h-5.3v2.8h5v2.9h-5v2.9h5.5V125.4z" />
			<path class="st54" d="M304.9,125.4h-2.8v-6.1c0-1.3,0-3.1,0-4.6c-0.2,1.5-0.5,3.3-0.8,4.6l-1.2,6.1h-2.9l-1.2-6.1
			c-0.3-1.3-0.6-3.1-0.7-4.6c0,1.5,0,3.3,0,4.6v6.1h-2.8v-14.5h4.4l1.8,10.8l1.8-10.8h4.3V125.4z" />
			<path class="st54" d="M318.5,125.4h-8.3v-14.5h8.2v2.9H313v2.8h5v2.9h-5v2.9h5.5V125.4z" />
			<path class="st54" d="M330.1,125.4l-4-9.6c0.1,1.5,0.1,2.8,0.1,3.6v6h-2.8v-14.5h3.5l4.1,10c-0.1-1.5-0.1-3-0.1-3.8v-6.2h2.8v14.5
			H330.1z" />
			<path class="st54" d="M344.4,113.8v11.5h-2.8v-11.5H338v-2.9h9.9v2.9H344.4z" />
		</g>
	</g>
</svg>